<svg viewBox="-46 0 512 512" xmlns="http://www.w3.org/2000/svg">
  <path d="m373.824219 170.601562 21.527343-21.53125c11.695313-11.691406 11.695313-30.722656 0-42.421874-11.695312-11.695313-30.726562-11.695313-42.421874 0l-22.984376 22.984374c-23.976562-16.699218-51.308593-28.257812-79.945312-33.804687v-29.828125h20c5.523438 0 10-4.476562 10-10v-26c0-16.542969-13.457031-30-30-30h-80c-16.542969 0-30 13.457031-30 30v26c0 5.523438 4.476562 10 10 10h20v29.828125c-28.632812 5.542969-55.96875 17.105469-79.945312 33.804687l-22.984376-22.984374c-11.691406-11.695313-30.722656-11.695313-42.421874 0-11.695313 11.695312-11.695313 30.726562 0 42.421874l21.527343 21.53125c-29.839843 37.167969-46.175781 83.464844-46.175781 131.398438 0 115.792969 94.207031 210 210 210s210-94.207031 210-210c0-47.933594-16.335938-94.230469-46.175781-131.398438zm-6.753907-49.8125c3.902344-3.898437 10.242188-3.894531 14.140626 0 3.894531 3.898438 3.894531 10.242188 0 14.140626l-20.664063 20.660156c-4.65625-4.78125-9.539063-9.339844-14.617187-13.65625zm-207.070312-90.789062c0-5.515625 4.484375-10 10-10h80c5.515625 0 10 4.484375 10 10v16h-100zm70 36v26.945312c-13.253906-1.242187-26.742188-1.242187-40 0v-26.945312zm-191.210938 54.789062c3.898438-3.894531 10.242188-3.898437 14.140626 0l21.140624 21.144532c-5.078124 4.316406-9.960937 8.875-14.617187 13.65625l-20.664063-20.660156c-3.894531-3.898438-3.894531-10.242188 0-14.140626zm171.210938 371.210938c-104.765625 0-190-85.234375-190-190 0-46.214844 16.777344-90.742188 47.238281-125.386719 8.390625-9.542969 17.753907-18.261719 27.828125-25.925781 25.246094-19.210938 55.128906-31.855469 86.417969-36.570312 9.363281-1.402344 18.957031-2.117188 28.515625-2.117188s19.152344.714844 28.511719 2.117188c31.292969 4.714843 61.175781 17.359374 86.425781 36.570312 10.070312 7.664062 19.433594 16.382812 27.824219 25.925781 30.460937 34.644531 47.238281 79.171875 47.238281 125.386719 0 104.765625-85.234375 190-190 190zm0 0"/>
  <path d="m210 332c16.542969 0 30-13.457031 30-30 0-13.035156-8.359375-24.152344-20-28.28125v-71.71875c0-5.523438-4.476562-10-10-10s-10 4.476562-10 10v71.71875c-11.640625 4.128906-20 15.246094-20 28.28125 0 16.542969 13.457031 30 30 30zm0-40c5.515625 0 10 4.484375 10 10s-4.484375 10-10 10-10-4.484375-10-10 4.484375-10 10-10zm0 0"/>
  <path d="m316.527344 196.5c-.15625-.183594-.3125-.367188-.488282-.539062-.1875-.191407-.386718-.363282-.585937-.535157-17.625-17.4375-39.398437-30.339843-63.027344-37.316406-5.300781-1.5625-10.859375 1.460937-12.421875 6.757813-1.5625 5.296874 1.460938 10.859374 6.757813 12.421874 17.507812 5.171876 33.839843 14.109376 47.761719 26.042969l-6.746094 6.746094c-3.902344 3.90625-3.902344 10.238281 0 14.144531 1.953125 1.953125 4.511718 2.929688 7.074218 2.929688 2.558594 0 5.117188-.976563 7.070313-2.929688l6.761719-6.761718c18.09375 21.039062 28.839844 46.9375 30.933594 74.539062h-9.617188c-5.523438 0-10 4.480469-10 10 0 5.523438 4.476562 10 10 10h9.617188c-2.09375 27.605469-12.839844 53.5-30.933594 74.539062l-6.761719-6.761718c-3.90625-3.902344-10.238281-3.902344-14.144531 0-3.90625 3.90625-3.90625 10.238281 0 14.144531l6.761718 6.761719c-21.039062 18.09375-46.9375 28.839844-74.539062 30.9375v-9.621094c0-5.523438-4.476562-10-10-10s-10 4.476562-10 10v9.617188c-27.601562-2.09375-53.5-12.839844-74.539062-30.933594l6.761718-6.761719c3.90625-3.90625 3.90625-10.238281 0-14.144531-3.90625-3.902344-10.238281-3.902344-14.144531 0l-6.761719 6.761718c-18.09375-21.039062-28.839844-46.9375-30.933594-74.539062h9.617188c5.523438 0 10-4.476562 10-10s-4.476562-10-10-10h-9.617188c2.09375-27.601562 12.839844-53.5 30.933594-74.539062l6.761719 6.761718c1.953125 1.953125 4.511719 2.929688 7.070313 2.929688 2.5625 0 5.121093-.976563 7.074218-2.929688 3.902344-3.90625 3.902344-10.238281 0-14.144531l-6.746094-6.746094c13.921876-11.9375 30.253907-20.871093 47.761719-26.042969 5.296875-1.5625 8.320313-7.125 6.757813-12.421874-1.5625-5.296876-7.117188-8.316407-12.421875-6.757813-23.625 6.972656-45.390625 19.871094-63.011719 37.300781-.207031.175782-.410156.355469-.601562.546875-.171876.171875-.324219.351563-.480469.53125-28.042969 28.304688-43.480469 65.742188-43.480469 105.511719 0 39.765625 15.4375 77.199219 43.472656 105.5.15625.183594.3125.367188.488282.539062.171874.175782.351562.328126.53125.484376 28.304687 28.039062 65.738281 43.476562 105.507812 43.476562 39.765625 0 77.199219-15.433594 105.5-43.46875.183594-.160156.367188-.316406.539062-.492188.171876-.167968.324219-.351562.480469-.527343 28.042969-28.304688 43.480469-65.742188 43.480469-105.511719 0-39.765625-15.4375-77.199219-43.472656-105.5zm0 0"/>
  <path d="m210 172c5.519531 0 10-4.480469 10-10s-4.480469-10-10-10-10 4.480469-10 10 4.480469 10 10 10zm0 0"/>
</svg>
